<svg version="1.1" id="Layer_1" xmlns="http://www.w3.org/2000/svg" x="0" y="0" viewBox="0 0 260 260" xml:space="preserve"><style>.st0{fill-rule:evenodd;clip-rule:evenodd;fill:#e1e0e9}</style><g id="i-like-food"><path class="st0" d="M24.4 16c.2.6.4 1.3.5 2h-3.7l1.2 2.3.5.9-.2.1V28c2.2 1.7 2.7 4.8 1 7-.8 1-1.9 1.7-3.2 1.9v.1c-.9 3.5-4.1 6-7.8 6h-20c-3.6 0-6.8-2.5-7.7-6v-.1c-2.7-.4-4.6-3-4.2-5.7.2-1.3.9-2.5 1.9-3.2v-6.8l-.8-1.6-.4-.9.9-.4.6-.3h-3C-17.2 5.6-4.9-2.2 7.5.6 15.4 2.3 21.9 8.2 24.4 16zm-36.8 2c-.2 0-.3 0-.4.1l-3.1 1.6.9 1.8 1.3-.7c.8-.4 1.8-.4 2.7 0l2.2 1.1c.3.1.6.1.9 0l2.2-1.1c.8-.4 1.8-.4 2.7 0l2.2 1.1c.3.1.6.1.9 0l2.2-1.1c.8-.4 1.8-.4 2.7 0l2.2 1.1c.2.1.5.1.8 0l2.9-1.3c.8-.3 1.7-.3 2.4 0l2.9 1.3c.3.1.6.1.9 0l3.1-1.5-.9-1.8-1.4.7c-.8.4-1.7.4-2.6.1l-2.8-1.2c-.2-.2-.3-.2-.4-.2-.1 0-.3 0-.4.1l-2.8 1.2c-.8.4-1.8.3-2.6-.1L4 18.1c-.1-.1-.3-.1-.4-.1-.2 0-.3 0-.4.1L1 19.2c-.8.4-1.8.4-2.7 0L-4 18.1c-.1-.1-.3-.1-.4-.1-.2 0-.3 0-.4.1L-7 19.2c-.8.4-1.8.4-2.7 0l-2.2-1.1c-.2-.1-.4-.1-.5-.1zm0-2h-4.9C-13.5 5.1-1.5-.7 9.5 3.2c6 2.1 10.7 6.8 12.8 12.8h-2.1l-.1-.1-.2.1h-32.3zm30.3 7.7l1.4-.7h1.3v2h-36v-1.1l.3-.2 1.4-.7h2.6l1.4.7c.8.4 1.8.4 2.7 0l1.4-.7H-3l1.4.7c.8.4 1.8.4 2.7 0l1.2-.7h2.6l1.4.7c.7.4 1.7.4 2.5 0l1.7-.7h3.2l1.7.7c.8.4 1.7.4 2.5 0zM-13.8 27l16.4 4.9L18.9 27h-32.7zm-.6 2h.3l16.7 5 16.7-5h.3c1.7 0 3 1.3 3 3s-1.3 3-3 3h-34c-1.7 0-3-1.3-3-3s1.3-3 3-3zm1.3 8c.8 2.4 3.1 4 5.7 4h20c2.5 0 4.8-1.6 5.7-4h-31.4z"/><path id="path6_fill-copy" class="st0" d="M284.4 16c.2.6.4 1.3.5 2h-3.7l1.2 2.3.5.9-.2.1V28c2.2 1.7 2.7 4.8 1 7-.8 1-1.9 1.7-3.2 1.9v.1c-.9 3.5-4.1 6-7.8 6h-20c-3.6 0-6.8-2.5-7.7-6v-.1c-2.7-.4-4.6-3-4.2-5.7.2-1.3.9-2.5 1.9-3.2v-6.8l-.8-1.6-.4-.9.9-.4.6-.3h-3C242.8 5.6 255.1-2.2 267.5.6c7.9 1.7 14.4 7.6 16.9 15.4zm-36.9 2c-.2 0-.3 0-.4.1l-3.1 1.6.9 1.8 1.3-.7c.8-.4 1.8-.4 2.7 0l2.2 1.1c.3.1.6.1.9 0l2.2-1.1c.8-.4 1.8-.4 2.7 0l2.2 1.1c.3.1.6.1.9 0l2.2-1.1c.8-.4 1.8-.4 2.7 0l2.2 1.1c.3.1.6.1.9 0l2.9-1.3c.8-.3 1.7-.3 2.4 0l2.9 1.3c.3.1.6.1.9 0l3.1-1.5-.9-1.8-1.4.7c-.8.4-1.7.4-2.6.1l-2.8-1.2c-.1-.1-.3-.1-.4-.1-.1 0-.3 0-.4.1l-2.8 1.2c-.8.4-1.8.3-2.6-.1l-2.3-1.1c-.1-.1-.3-.1-.5-.1s-.3 0-.4.1l-2.2 1.1c-.8.4-1.8.4-2.7 0l-2.2-1.1c-.1-.1-.3-.1-.4-.1-.2 0-.3 0-.4.1l-2.2 1.1c-.8.4-1.8.4-2.7 0l-2.2-1.1c-.2-.2-.4-.2-.6-.2zm0-2h-4.9c3.9-10.9 15.9-16.7 26.8-12.8 6 2.1 10.7 6.8 12.8 12.8h-2.1l-.1-.1-.3.1h-32.2zm30.4 7.7l1.4-.7h1.3v2h-36v-1.1l.3-.2 1.4-.7h2.6l1.4.7c.8.4 1.8.4 2.7 0l1.4-.7h2.6l1.4.7c.8.4 1.8.4 2.7 0l1.4-.7h2.6l1.4.7c.8.4 1.7.4 2.6.1l1.7-.7h3.2l1.7.7c.5.3 1.4.3 2.2-.1zM246.2 27l16.4 4.9L279 27h-32.8zm-.7 2h.3l16.7 5 16.7-5h.3c1.7 0 3 1.3 3 3s-1.3 3-3 3h-34c-1.7 0-3-1.3-3-3s1.4-3 3-3zm1.4 8c.8 2.4 3.1 4 5.6 4h20c2.5 0 4.8-1.6 5.7-4h-31.3z"/><path class="st0" d="M159.5 21c-1.3-3.6-4.7-6-8.5-6h-42c-3.8 0-7.2 2.4-8.5 6-3.3.3-5.8 3.2-5.5 6.5.2 2.9 2.6 5.2 5.5 5.5-1.7 4.7.8 9.8 5.4 11.5 1 .3 2 .5 3 .5h42c5 0 9-4 9-9 0-1-.2-2.1-.5-3 3.3-.3 5.8-3.2 5.5-6.5-.2-2.9-2.5-5.2-5.4-5.5zm-8.5-4h-42c-2.7 0-5.2 1.6-6.3 4h54.7c-1.2-2.4-3.7-4-6.4-4zm-9.3 26c2.1-1.7 3.3-4.3 3.3-7h-2c0 3.9-3.1 7-7 7h-4.3c2.1-1.7 3.3-4.3 3.3-7h-2c0 3.9-3.1 7-7 7h-4.3c2.1-1.7 3.3-4.3 3.3-7h-2c0 3.9-3.1 7-7 7h-7c-3.9 0-7-3.1-7-7s3.1-7 7-7h42c3.9 0 7 3.1 7 7s-3.1 7-7 7h-9.3zM109 27c-3 0-5.8 1.5-7.5 4h-.5c-2.2 0-4-1.8-4-4s1.8-4 4-4h58c2.2 0 4 1.8 4 4s-1.8 4-4 4h-.5c-1.7-2.5-4.5-4-7.5-4h-42zM39 115c4.4 0 8-3.6 8-8s-3.6-8-8-8-8 3.6-8 8 3.6 8 8 8zm6-8c0 3.3-2.7 6-6 6s-6-2.7-6-6 2.7-6 6-6 6 2.7 6 6zm-3-29v-2h8v-6H40c-2.2 0-4 1.8-4 4v10H22l-1.3 4-.7 2h2.2l3.8 40h26l3.8-40H58l-.7-2-1.3-4H42v-6zm-4-4v10h2V74h8v-2h-8c-1.1 0-2 .9-2 2zm2 12h14.6l.7 2H22.8l.7-2H40zm13.8 4H24.2l3.6 38h22.4l3.6-38zM129 92h-6v4h-6v4h-6v14h-3l.2 2 3.8 32h36l3.8-32 .2-2h-3v-14h-6v-4h-6v-4h-8zm18 22v-12h-4v4h3v8h1zm-3 0v-6h-4v6h4zm-6 6v-16h-4v19.2c1.6-.7 3-1.8 4-3.2zm-6 3.8V100h-4v23.8c1.3.3 2.7.3 4 0zm-6-.6V104h-4v16c1 1.4 2.4 2.5 4 3.2zm-6-9.2v-6h-4v6h4zm-6 0v-8h3v-4h-4v12h1zm27-12v-4h-4v4h3v4h1v-4zm-6 0v-8h-4v4h3v4h1zm-6-4v-4h-4v8h1v-4h3zm-6 4v-4h-4v8h1v-4h3zm7 24c5.9 0 10.9-4.2 11.8-10h7.9l-3.5 30h-32.4l-3.5-30h7.9c.9 5.8 5.9 10 11.8 10zM212 86v2h-4v-2h4zm4 0h-2v2h2v-2zm-20 0c-2.7.7-4.5 3.3-3.9 6 .4 1.8 1.6 3.2 3.3 3.8l.1.2 1.1 4.5c.2.9 1 1.5 1.9 1.5l7 24.6c.2.9 1 1.4 1.9 1.4h5c.9 0 1.7-.6 1.9-1.4l7-24.6c.9 0 1.7-.6 1.9-1.5l1.1-4.5.1-.2c2.6-.9 4.1-3.7 3.2-6.3-.6-1.7-2-3-3.8-3.3V86c0-7.7-6.3-14-14-14S196 78.3 196 86zm4 0h6v2h-9c-1.7 0-3 1.3-3 3s1.3 3 3 3h26c1.7 0 3-1.3 3-3s-1.3-3-3-3h-3v-2h2c0-6.6-5.4-12-12-12s-12 5.4-12 12h2zm-1.4 14l-1-4h24.9l-1 4h-22.9zm8.9 26l-6.9-24h18.7l-6.9 24h-4.9zM150 242c12.2 0 22-9.8 22-22s-9.8-22-22-22-22 9.8-22 22 9.8 22 22 22zm24-22c0 13.3-10.7 24-24 24s-24-10.7-24-24 10.7-24 24-24 24 10.7 24 24zm-28.4 17.7l2-.9c1.5-.6 3.2-.6 4.7 0l2 .9c.9.4 2 0 2.5-.8l1.1-1.9c.8-1.4 2.2-2.4 3.8-2.8l2.1-.5c1-.2 1.6-1.1 1.5-2.1l-.2-2.2c-.1-1.6.4-3.2 1.4-4.5l1.4-1.7c.7-.8.7-1.9 0-2.6l-1.4-1.7c-1.1-1.2-1.6-2.8-1.4-4.5l.2-2.2c.1-1-.6-1.9-1.6-2.1l-2.1-.5c-1.6-.4-3-1.4-3.8-2.8l-1.1-1.9c-.5-.9-1.6-1.2-2.5-.8l-2 .9c-1.5.6-3.2.6-4.7 0l-2-.9c-.9-.4-2 0-2.5.8l-1 2.1c-.8 1.4-2.2 2.4-3.8 2.8l-2.1.5c-1 .2-1.6 1.1-1.5 2.1l.2 2.2c.1 1.6-.4 3.2-1.4 4.5l-1.4 1.7c-.7.8-.7 1.9 0 2.6l1.4 1.7c1.1 1.2 1.6 2.8 1.4 4.5l-.2 2.2c-.1 1 .6 1.9 1.6 2.1l2.1.5c1.6.4 3 1.4 3.8 2.8l1.1 1.9c.4.7 1.5 1 2.4.6zm2.8 1c1-.4 2.1-.4 3.1 0l2 .9c1.8.8 4 .1 5-1.6l1.1-1.9c.6-.9 1.5-1.6 2.5-1.8l2.1-.5c1.9-.4 3.3-2.3 3.1-4.2l-.2-2.2c-.1-1.1.3-2.2 1-3l1.4-1.7c1.3-1.5 1.3-3.7 0-5.2l-1.4-1.7c-.7-.8-1.1-1.9-1-3l.2-2.2c.2-2-1.1-3.8-3.1-4.2l-2.1-.5c-1.1-.2-2-.9-2.5-1.8l-1.1-1.9c-1-1.7-3.2-2.4-5-1.6l-2 .9c-1 .4-2.1.4-3.1 0l-2-.9c-1.8-.8-4-.1-5 1.6l-1.1 1.9c-.6.9-1.5 1.6-2.5 1.8l-2.1.5c-1.9.4-3.3 2.3-3.1 4.2l.2 2.2c.1 1.1-.3 2.2-1 3l-1.4 1.7c-1.3 1.5-1.3 3.7 0 5.2l1.4 1.7c.7.8 1.1 1.9 1 3l-.2 2.2c-.2 2 1.1 3.8 3.1 4.2l2.1.5c1.1.2 2 .9 2.5 1.8l1.1 1.9c1 1.7 3.2 2.4 5 1.6l2-.9zM152 207c0-.6.4-1 1-1s1 .4 1 1-.4 1-1 1-1-.4-1-1zm6 2c0-.6.4-1 1-1s1 .4 1 1-.4 1-1 1-1-.4-1-1zm-11 1c0-.6.4-1 1-1s1 .4 1 1-.4 1-1 1-1-.4-1-1zm-6 0c0-.6.4-1 1-1s1 .4 1 1-.4 1-1 1-1-.4-1-1zm3-5c0-.6.4-1 1-1s1 .4 1 1-.4 1-1 1-1-.4-1-1zm-8 8c0-.6.4-1 1-1s1 .4 1 1-.4 1-1 1-1-.4-1-1zm3 6c0-.6.4-1 1-1s1 .4 1 1-.4 1-1 1-1-.4-1-1zm0 6c0-.6.4-1 1-1s1 .4 1 1-.4 1-1 1-1-.4-1-1zm4 7c0-.6.4-1 1-1s1 .4 1 1-.4 1-1 1-1-.4-1-1zm5-2c0-.6.4-1 1-1s1 .4 1 1-.4 1-1 1-1-.4-1-1zm5 4c0-.6.4-1 1-1s1 .4 1 1-.4 1-1 1-1-.4-1-1zm4-6c0-.6.4-1 1-1s1 .4 1 1-.4 1-1 1-1-.4-1-1zm6-4c0-.6.4-1 1-1s1 .4 1 1-.4 1-1 1-1-.4-1-1zm-4-3c0-.6.4-1 1-1s1 .4 1 1-.4 1-1 1-1-.4-1-1zm4-3c0-.6.4-1 1-1s1 .4 1 1-.4 1-1 1-1-.4-1-1zm-5-4c0-.6.4-1 1-1s1 .4 1 1-.4 1-1 1-1-.4-1-1zm-24 6c0-.6.4-1 1-1s1 .4 1 1-.4 1-1 1-1-.4-1-1zm16 5c2.8 0 5-2.2 5-5s-2.2-5-5-5-5 2.2-5 5 2.2 5 5 5zm7-5c0 3.9-3.1 7-7 7s-7-3.1-7-7 3.1-7 7-7 7 3.1 7 7zm86-29c-.6 0-1 .4-1 1s.4 1 1 1h2c.6 0 1-.4 1-1s-.4-1-1-1h-2zm19 9c0-.6.4-1 1-1h2c.6 0 1 .4 1 1s-.4 1-1 1h-2c-.6 0-1-.4-1-1zm-14 5c-.6 0-1 .4-1 1s.4 1 1 1h2c.6 0 1-.4 1-1s-.4-1-1-1h-2zm-25 1c-.6 0-1 .4-1 1s.4 1 1 1h2c.6 0 1-.4 1-1s-.4-1-1-1h-2zm5 4c-.6 0-1 .4-1 1s.4 1 1 1h2c.6 0 1-.4 1-1s-.4-1-1-1h-2zm9 0c0-.6.4-1 1-1h2c.6 0 1 .4 1 1s-.4 1-1 1h-2c-.6 0-1-.4-1-1zm15 1c0-.6.4-1 1-1h2c.6 0 1 .4 1 1s-.4 1-1 1h-2c-.6 0-1-.4-1-1zm12-2c-.6 0-1 .4-1 1s.4 1 1 1h2c.6 0 1-.4 1-1s-.4-1-1-1h-2zm-11-14c0-.6.4-1 1-1h2c.6 0 1 .4 1 1s-.4 1-1 1h-2c-.6 0-1-.4-1-1zm-19 0c-.6 0-1 .4-1 1s.4 1 1 1h2c.6 0 1-.4 1-1s-.4-1-1-1h-2zm6 5c0-.6.4-1 1-1h2c.6 0 1 .4 1 1s-.4 1-1 1h-2c-.6 0-1-.4-1-1zm-25 15v-1.4c-2.5-1.1-3.7-4-2.6-6.6.2-.5.5-1 .9-1.4-.9-2 0-4.2 1.9-5.2-.8-2.6.7-5.4 3.4-6.2.4-.5.9-.9 1.5-1.1.5-2.7 3.1-4.5 5.8-4.1.7.1 1.4.4 2 .8 5.3-3.8 11.6-5.9 18.2-5.9 6.8 0 13.1 2.2 18.2 5.9 2.3-1.6 5.4-1 7 1.3.4.6.7 1.3.8 2 .6.2 1.1.6 1.5 1.1 2.7.8 4.2 3.5 3.4 6.2 1.9 1 2.7 3.2 1.9 5.2 1.9 2 1.8 5.2-.2 7-.4.4-.9.7-1.5 1v2.4h-62v-1h-.2zm.8-7.2c-.3 1.2-.5 2.4-.6 3.6-1.3-1-1.6-2.9-.6-4.2.4.3.8.5 1.2.6zm1.5-4.6c-.4.9-.7 1.8-1 2.7-1-.4-1.6-1.5-1.3-2.5.2-.5.6-.9 1.1-1.2.4.4.8.7 1.2 1zm2.3-4.5l-1.5 2.7c-1.3-1-1.5-2.9-.5-4.2.1-.2.3-.3.4-.5.3.9.9 1.6 1.6 2zm1.2-1.7c.4-.5.7-1 1.1-1.5-.3-.5-.9-.7-1.4-.4s-.7.9-.4 1.4c.2.2.4.4.7.5zm5.3-5.8c-1 .9-2 1.8-2.9 2.8-.3-.3-.7-.6-1.1-.8.4-1.6 2.1-2.5 3.7-2.1.1 0 .2.1.3.1zm42.7 2.8c-.9-1-1.9-1.9-2.9-2.8 1.5-.6 3.3.1 3.9 1.7 0 .1.1.2.1.3-.4.2-.8.4-1.1.8zm1.3 1.5c.4.5.8 1 1.1 1.4.5-.1.9-.7.8-1.2s-.7-.9-1.2-.8c-.3.2-.5.4-.7.6zm3.8 5.9l-1.5-2.7c.8-.4 1.4-1.1 1.6-2 1.3 1.1 1.4 3 .4 4.2-.2.2-.4.3-.5.5zm1.7 4.5c-.3-.9-.6-1.8-1-2.7.4-.3.8-.6 1.2-1 1 .5 1.4 1.7 1 2.7-.2.4-.6.8-1.2 1zm1.2 5.5c-.1-1.2-.4-2.4-.6-3.6.5-.1.9-.4 1.2-.6 1 1.3.7 3.2-.6 4.2zM275 214c-.5-16-13.9-28.6-29.9-28.1-15.3.5-27.6 12.8-28.1 28.1h58zM72.3 198.1c-.2-.3-.3-.7-.3-1.1v-12h-2v12c0 2.2 1.8 4 4 4 1.2 0 2.3-.5 3.1-1.4.6-.7.9-1.6.9-2.5v-12h-2v12c0 1.1-.9 2-2 2-.7-.1-1.3-.4-1.7-1zM75 176c.4 0 .7 0 1.1-.1.5 2.2 2.6 3.5 4.8 3 .5-.1 1-.3 1.4-.6 1.1 2.1 1.7 4.4 1.7 6.7v24c0 3.3-2.7 6-6 6h-3v9c0 2.8-2.2 5-5 5s-5-2.2-5-5v-9h-3c-3.3 0-6-2.7-6-6v-24c0-7.7 6.3-14 14-14 0 2.8 2.2 5 5 5zm-17 15v12c0 .8.5 1.5 1.2 1.8.9.4 1.9.1 2.4-.7.2-.3.3-.7.3-1.1v-12h2v12c0 2.2-1.7 4-3.9 4-.5 0-1-.1-1.4-.2-.2-.1-.4-.2-.7-.3v2.5c0 2.2 1.8 4 4 4h16c2.2 0 4-1.8 4-4v-24c0-1.5-.2-2.9-.7-4.2-.4.1-.9.2-1.3.2-2.1 0-4.1-1.1-5.2-3-3-.1-5.6-2-6.5-4.9C62.4 174 58 179 58 185v6zm9 24v9c0 1.7 1.3 3 3 3s3-1.3 3-3v-9h-6zM-17 191c-.6 0-1 .4-1 1s.4 1 1 1h2c.6 0 1-.4 1-1s-.4-1-1-1h-2zm19 9c0-.6.4-1 1-1h2c.6 0 1 .4 1 1s-.4 1-1 1H3c-.6 0-1-.4-1-1zm-14 5c-.6 0-1 .4-1 1s.4 1 1 1h2c.6 0 1-.4 1-1s-.4-1-1-1h-2zm-25 1c-.6 0-1 .4-1 1s.4 1 1 1h2c.6 0 1-.4 1-1s-.4-1-1-1h-2zm5 4c-.6 0-1 .4-1 1s.4 1 1 1h2c.6 0 1-.4 1-1s-.4-1-1-1h-2zm9 0c0-.6.4-1 1-1h2c.6 0 1 .4 1 1s-.4 1-1 1h-2c-.6 0-1-.4-1-1zm15 1c0-.6.4-1 1-1h2c.6 0 1 .4 1 1s-.4 1-1 1h-2c-.6 0-1-.4-1-1zm12-2c-.6 0-1 .4-1 1s.4 1 1 1h2c.6 0 1-.4 1-1s-.4-1-1-1H4zm-11-14c0-.6.4-1 1-1h2c.6 0 1 .4 1 1s-.4 1-1 1h-2c-.6 0-1-.4-1-1zm-19 0c-.6 0-1 .4-1 1s.4 1 1 1h2c.6 0 1-.4 1-1s-.4-1-1-1h-2zm6 5c0-.6.4-1 1-1h2c.6 0 1 .4 1 1s-.4 1-1 1h-2c-.6 0-1-.4-1-1zm-25 15v-1.4c-2.5-1.1-3.7-4-2.6-6.6.2-.5.5-1 .9-1.4-.9-2 0-4.2 1.9-5.2-.8-2.6.7-5.4 3.4-6.2.4-.5.9-.9 1.5-1.1.5-2.7 3.1-4.5 5.8-4.1.7.1 1.4.4 2 .8 5.3-3.8 11.6-5.9 18.2-5.9 6.8 0 13.1 2.2 18.2 5.9 2.3-1.6 5.4-1 7 1.3.4.6.7 1.3.8 2 .6.2 1.1.6 1.5 1.1 2.7.8 4.2 3.5 3.4 6.2 1.9 1 2.7 3.2 1.9 5.2 1.9 2 1.8 5.2-.2 7-.4.4-.9.7-1.5 1v2.4h-62v-1h-.2zm.8-7.2c-.3 1.2-.5 2.4-.6 3.6-1.3-1-1.6-2.9-.6-4.2.4.3.8.5 1.2.6zm1.5-4.6c-.4.9-.7 1.8-1 2.7-1-.4-1.6-1.5-1.3-2.5.2-.5.6-.9 1.1-1.2.4.4.8.7 1.2 1zm2.3-4.5l-1.5 2.7c-1.3-1-1.5-2.9-.5-4.2.1-.2.3-.3.4-.5.3.9.9 1.6 1.6 2zm1.2-1.7c.3-.5.7-1 1.1-1.5-.3-.5-.9-.7-1.4-.4s-.7.9-.4 1.4c.2.2.4.4.7.5zm5.3-5.8c-1 .9-2 1.8-2.9 2.8-.3-.3-.7-.6-1.1-.8.4-1.6 2.1-2.5 3.7-2.1.1 0 .2.1.3.1zM8.8 194c-.9-1-1.9-1.9-2.9-2.8 1.5-.6 3.3.1 3.9 1.7 0 .1.1.2.1.3-.4.2-.8.4-1.1.8zm1.3 1.5c.4.5.8 1 1.1 1.4.5-.1.9-.7.8-1.2-.1-.5-.7-.9-1.2-.8-.3.2-.5.4-.7.6zm3.8 5.9c-.5-.9-.9-1.8-1.5-2.7.8-.4 1.4-1.1 1.6-2 1.3 1.1 1.4 3 .4 4.2-.2.2-.4.3-.5.5zm1.8 4.5c-.3-.9-.6-1.8-1-2.7.4-.3.8-.6 1.2-1 1 .5 1.4 1.7 1 2.7-.3.4-.7.8-1.2 1zm1.1 5.5c-.1-1.2-.4-2.4-.6-3.6.5-.1.9-.4 1.2-.6 1 1.3.7 3.2-.6 4.2zM15 214c-.5-16-13.9-28.6-29.9-28.1-15.3.5-27.6 12.8-28.1 28.1h58z"/></g></svg>